<?xml version="1.0" standalone="no"?><!DOCTYPE svg PUBLIC "-//W3C//DTD SVG 1.1//EN" "http://www.w3.org/Graphics/SVG/1.1/DTD/svg11.dtd"><svg t="1667132931214" class="icon" viewBox="0 0 1024 1024" version="1.1" xmlns="http://www.w3.org/2000/svg" p-id="6529" xmlns:xlink="http://www.w3.org/1999/xlink" width="200" height="200"><path d="M732 893c-210.4 121.5-479.5 49.4-601-161S81.6 252.5 292 131s479.5-49.4 601 161 49.4 479.5-161 601z" fill="#3DC38A" p-id="6530"></path><path d="M543 380.4c-3.2 0.7-9.3 2.3-12 4.4-3.3 2.7 1.9 6.1 0 7.6-3.3 2.6-5.6 7.3-12.6 6.9-14.6-0.9-37-19.8-50.4-27 21.5-22.1-12.5-25.5-25.8-24.3-17.2 1.4-46.9-0.1-62.4 8.6-10.8 6.1-25.2 31.2-33.9 41.2-12.1 13.9-24.2 26-32.1 42.6-28.9 61.1 15.6 131.2 85.4 123 19.4-2.3 39.7-14.5 56.9 1.6 12.7 11.9 6 23 9.3 36.8 2.9 12 16.1 19.3 20.7 30.3 8.8 21.1 3.2 34.2-3 53.6-8.2 25.5 13.1 55.7 21.3 80.3 4.2 12.4 16.3 47.1 28.3 52.5 18.8 8.5 48.2-17.1 59.4-30.8 8.8-10.8 5.9-21.7 11.8-31.8 6.4-10.9 14.4-14.2 18.9-28.2 4.8-15.2 9.8-18.9 20-30 16.4-17.8 13.8-28.2 7.3-49.3-13.6-43.8 35.8-64.3 58-96.5 23.2-33.6-21.7-22.4-39.2-33.9-18.1-11.8-26-34.3-34.7-52.9s-15.9-46.6-30.4-61.9c-11.2-11.6-45-17-60.8-22.8zM770.1 674.4c-7 23.6-14 47.3-21 70.9-4.9 16.5-22.2 70.6-46.6 36-9.2-13.2-1.7-30.4 3.4-42.5 6.5-15.3-2.3-23 2.3-37.4 5.2-16.6 26.6-17.1 36.7-28.8 7.1-8.1 11.4-21.1 16.6-30.6 2.9 10.8 5.8 21.6 8.6 32.4z" fill="#2F9B77" p-id="6531"></path><path d="M893 292C817.2 160.8 684 83.4 543.5 73.2L486 145.4l-123.3 43.2-33.1 80.2 51 71.5 5.4-15.1c9.1-25.2 33-42.1 59.8-42.1h84.1l96.7 34 33.3 31.8V369l46.3 88.7 13.5-5c29.1-10.7 55.5-27.7 77.5-49.6L786 386.3c-3.6-5.3 0.3-12.5 6.7-12.5h27c7.9 0 15.4 3.5 20.5 9.5l22 25.8c2.1 2.5 3.7 5.3 4.8 8.3l24.3 66.9 11.6-11.6c7.3-7.3 11-17.2 11.2-27.6 0.1-8.3 3.7-16.2 9.9-21.7l8.9-7.9c2.2-2 4.7-3.6 7.4-4.8-9.7-40.6-25.3-80.6-47.3-118.7zM234.8 309.2l21-22.5c15.3-16.4 19.7-40.3 11.1-61.1-9.1-22-28.9-36.2-50.9-39.2C138.4 256.8 90.1 351.6 76.2 452c16.4 14.4 33.6 29.7 33.5 31.1-0.2 2.6 61.6-7.8 61.6-7.8l-31.8-46.6 45.6-32.6 49.7-86.9zM277.6 747.6c19.8-6.4 30.7-27.7 24.2-47.6l-5.7-17.4c-2.5-7.6-2.5-15.8 0-23.4 7.1-21.6-6.4-44.5-28.6-48.8l-44.5-8.7-81.2-61.7-67.1 21.8C81.4 620 99.8 677.9 131 732c28.9 50 66.1 92.2 108.8 125.8l20-104.4 17.8-5.8z" fill="#2F9B77" p-id="6532"></path><path d="M307.9 714.9c-2.1 0-4.2-0.5-6.2-1.5-6.8-3.6-13.6-7.5-20.2-11.5-6.3-3.9-8.3-12.1-4.4-18.4 3.9-6.3 12.1-8.3 18.4-4.4 6.1 3.7 12.3 7.3 18.6 10.6 6.6 3.5 9.1 11.6 5.6 18.1-2.3 4.5-7 7.1-11.8 7.1zM464.7 753.6c-5.9 0-11.9-0.1-17.8-0.4-7.4-0.4-13.1-6.7-12.7-14.1 0.4-7.4 6.7-13.1 14.1-12.7 13.7 0.7 27.6 0.5 41.2-0.5 7.4-0.6 13.8 5 14.4 12.4s-5 13.8-12.4 14.4c-8.9 0.5-17.9 0.9-26.8 0.9z m-68.2-6.9c-0.9 0-1.8-0.1-2.7-0.3-14.5-3-29-6.9-43-11.8-7-2.4-10.7-10-8.3-17 2.4-7 10-10.7 17-8.3 12.9 4.5 26.3 8.1 39.7 10.9 7.3 1.5 11.9 8.6 10.4 15.8-1.3 6.3-6.8 10.7-13.1 10.7z m144.8-1.9c-6.1 0-11.6-4.2-13-10.4-1.7-7.2 2.8-14.4 10-16.1 13.3-3.1 26.6-7.1 39.4-11.9 6.9-2.6 14.7 0.9 17.3 7.9 2.6 6.9-0.9 14.7-7.9 17.3-13.9 5.2-28.3 9.5-42.7 12.9-1 0.2-2 0.3-3.1 0.3z m87.8-34.1c-4.7 0-9.2-2.5-11.7-6.9-3.6-6.5-1.3-14.6 5.1-18.3 11.9-6.7 23.6-14.2 34.6-22.4 5.9-4.4 14.3-3.2 18.8 2.8 4.4 5.9 3.2 14.3-2.8 18.8-11.9 8.8-24.5 17-37.4 24.3-2.1 1.2-4.3 1.7-6.6 1.7z m74.9-57c-3.4 0-6.8-1.3-9.4-3.9-5.3-5.2-5.3-13.7-0.1-19 9.6-9.7 18.7-20.2 27.1-31.1 4.5-5.9 12.9-7 18.8-2.5s7 12.9 2.5 18.8c-9 11.8-18.9 23.1-29.3 33.6-2.7 2.7-6.1 4.1-9.6 4.1zM760.3 578.2c-2.2 0-4.4-0.5-6.4-1.6-6.5-3.6-8.9-11.7-5.3-18.2 3.4-6.3 6.7-12.7 9.7-19.2 3.1-6.7 11.1-9.6 17.8-6.5s9.6 11.1 6.5 17.8c-3.2 7-6.8 14-10.5 20.8-2.5 4.3-7.1 6.9-11.8 6.9z" fill="#EA800C" p-id="6533"></path><path d="M378 440.8c0 66.2-119.8 200.6-119.8 200.6S138.3 506.9 138.3 440.8 192 321 258.1 321 378 374.6 378 440.8z" fill="#EA800C" p-id="6534"></path><path d="M258.1 440.8m-61 0a61 61 0 1 0 122 0 61 61 0 1 0-122 0Z" fill="#FFFFFF" p-id="6535"></path><path d="M903.6 285.9c0 66.2-119.8 200.6-119.8 200.6S663.9 352.1 663.9 285.9s53.6-119.8 119.8-119.8 119.9 53.6 119.9 119.8z" fill="#F2B843" p-id="6536"></path><path d="M783.8 285.9m-61 0a61 61 0 1 0 122 0 61 61 0 1 0-122 0Z" fill="#FFFFFF" p-id="6537"></path></svg>